<svg xmlns="http://www.w3.org/2000/svg" width="840" height="540" viewBox="0 0 840 540" role="img" aria-labelledby="title">
  <title id="title">Analytics Dashboard demo screenshot</title>
  <rect width="840" height="540" fill="#151515"/>
  <rect x="36" y="36" width="768" height="468" rx="18" fill="#f7f3e8"/>
  <rect x="68" y="72" width="160" height="28" rx="14" fill="#1ed760"/>
  <text x="68" y="142" fill="#141414" font-family="ui-sans-serif, system-ui" font-size="46" font-weight="800">Analytics</text>
  <g fill="#fffdf6" stroke="#ddd4c3">
    <rect x="68" y="190" width="156" height="112" rx="12"/>
    <rect x="244" y="190" width="156" height="112" rx="12"/>
    <rect x="420" y="190" width="156" height="112" rx="12"/>
    <rect x="596" y="190" width="140" height="112" rx="12"/>
  </g>
  <g fill="#141414" font-family="ui-monospace, monospace" font-size="28" font-weight="700">
    <text x="92" y="252">94%</text><text x="268" y="252">1.8s</text><text x="444" y="252">42k</text><text x="620" y="252">$18k</text>
  </g>
  <rect x="68" y="338" width="668" height="92" rx="12" fill="#141414"/>
  <path d="M104 398 C178 348 216 432 286 384 S408 350 484 392 604 408 704 360" fill="none" stroke="#1ed760" stroke-width="10" stroke-linecap="round"/>
</svg>
