<svg xmlns="http://www.w3.org/2000/svg" width="840" height="540" viewBox="0 0 840 540" role="img" aria-labelledby="title">
  <title id="title">Theme Switcher demo screenshot</title>
  <rect width="840" height="540" fill="#f4d35e"/>
  <rect x="36" y="36" width="768" height="468" rx="18" fill="#141414"/>
  <text x="76" y="130" fill="#f7f3e8" font-family="ui-sans-serif, system-ui" font-size="48" font-weight="800">Theme lab</text>
  <g transform="translate(76 180)">
    <rect width="160" height="220" rx="16" fill="#f7f3e8"/><circle cx="54" cy="58" r="26" fill="#1ed760"/><rect x="36" y="112" width="92" height="16" rx="8" fill="#141414"/><rect x="36" y="146" width="116" height="16" rx="8" fill="#ddd4c3"/>
    <rect x="190" width="160" height="220" rx="16" fill="#22312a"/><circle cx="244" cy="58" r="26" fill="#ff6b35"/><rect x="226" y="112" width="92" height="16" rx="8" fill="#f7f3e8"/><rect x="226" y="146" width="116" height="16" rx="8" fill="#55645d"/>
    <rect x="380" width="160" height="220" rx="16" fill="#eaf2ff"/><circle cx="434" cy="58" r="26" fill="#141414"/><rect x="416" y="112" width="92" height="16" rx="8" fill="#141414"/><rect x="416" y="146" width="116" height="16" rx="8" fill="#aab8ce"/>
  </g>
</svg>
